<?xml version="1.0" encoding="utf-8"?>
<!-- Generator: Adobe Illustrator 16.0.0, SVG Export Plug-In . SVG Version: 6.00 Build 0)  -->
<!DOCTYPE svg PUBLIC "-//W3C//DTD SVG 1.1//EN" "http://www.w3.org/Graphics/SVG/1.1/DTD/svg11.dtd">
<svg version="1.1" id="Layer_1" xmlns="http://www.w3.org/2000/svg" xmlns:xlink="http://www.w3.org/1999/xlink" x="0px" y="0px"
	 width="349.715px" height="595.28px" viewBox="122.782 123.305 349.715 595.28"
	 enable-background="new 122.782 123.305 349.715 595.28" xml:space="preserve">
<g>
	<g>
		<path fill="#023D59" d="M240.3,421.071l222.692-222.703c6.132-6.117,9.505-14.296,9.505-23.018c0-8.726-3.373-16.9-9.505-23.027
			l-19.514-19.504c-6.122-6.137-14.306-9.515-23.027-9.515c-8.721,0-16.896,3.378-23.022,9.515L132.278,397.966
			c-6.15,6.146-9.52,14.359-9.495,23.091c-0.024,8.77,3.34,16.973,9.495,23.124l264.904,264.89
			c6.128,6.137,14.302,9.515,23.027,9.515c8.722,0,16.896-3.378,23.027-9.515l19.509-19.504c12.694-12.694,12.694-33.359,0-46.05
			L240.3,421.071z"/>
	</g>
</g>
</svg>
