<?xml version="1.0" encoding="utf-8"?>
<!-- Generator: Adobe Illustrator 16.0.0, SVG Export Plug-In . SVG Version: 6.00 Build 0)  -->
<!DOCTYPE svg PUBLIC "-//W3C//DTD SVG 1.1//EN" "http://www.w3.org/Graphics/SVG/1.1/DTD/svg11.dtd">
<svg version="1.1" id="Layer_1" xmlns="http://www.w3.org/2000/svg" xmlns:xlink="http://www.w3.org/1999/xlink" x="0px" y="0px"
	 width="668.657px" height="83.582px" viewBox="0 0 668.657 83.582" enable-background="new 0 0 668.657 83.582"
	 xml:space="preserve">
<g>
	<path fill="#023D59" d="M20.053,64.221c0.947,0.205,1.792,0.471,2.534,0.798c0.741,0.327,1.462,0.655,2.163,0.981v2.349H5.715V66
		c0.906-0.494,1.771-0.875,2.596-1.143c0.824-0.268,1.647-0.484,2.472-0.649v-34.98c-2.061-0.453-3.75-1.051-5.068-1.792v-2.348
		h6.551c0.824,0,1.761-0.021,2.812-0.062c1.051-0.041,2.152-0.093,3.307-0.154c1.153-0.062,2.327-0.124,3.522-0.186
		c1.195-0.062,2.349-0.093,3.461-0.093c2.266,0,4.357,0.259,6.273,0.776c1.916,0.518,3.563,1.294,4.944,2.329
		c1.38,1.035,2.451,2.329,3.214,3.882c0.762,1.553,1.144,3.364,1.144,5.434c0,2.982-0.722,5.425-2.163,7.33
		c-1.443,1.904-3.42,3.333-5.933,4.285c1.647,2.578,3.399,5.208,5.253,7.889s3.811,5.27,5.872,7.766l2.966,1.964v2.101H36.617
		l-2.658-2.026c-1.896-2.251-3.575-4.86-5.037-7.828c-1.463-2.968-2.75-5.884-3.862-8.749h-5.006V64.221z M23.161,28.609
		c-1.284,0-2.32,0.124-3.107,0.371v17.243h3.667c2.113,0,3.915-0.751,5.406-2.256c1.491-1.503,2.237-3.739,2.237-6.706
		c0-1.524-0.208-2.832-0.622-3.924c-0.414-1.091-0.995-1.987-1.74-2.688c-0.745-0.7-1.615-1.215-2.61-1.545
		C25.396,28.774,24.32,28.609,23.161,28.609z"/>
	<path fill="#023D59" d="M49.162,20.204v-4.326h20.024v4.326H49.162z M68.692,68.349H49.409V66c1.647-0.906,3.316-1.503,5.006-1.792
		v-34.98c-0.825-0.124-1.69-0.35-2.596-0.68c-0.907-0.33-1.71-0.7-2.41-1.113v-2.348h19.283v2.348
		c-0.742,0.454-1.556,0.834-2.441,1.144c-0.886,0.309-1.741,0.525-2.565,0.649v34.98c0.824,0.165,1.679,0.392,2.565,0.68
		c0.886,0.289,1.7,0.66,2.441,1.112V68.349z"/>
	<path fill="#023D59" d="M109.852,65.629c-0.825,0.412-1.834,0.825-3.028,1.236c-1.196,0.413-2.452,0.783-3.77,1.112
		c-1.319,0.33-2.637,0.597-3.956,0.804c-1.319,0.206-2.493,0.309-3.522,0.309c-3.544,0-6.706-0.463-9.487-1.39
		s-5.151-2.327-7.107-4.203c-1.958-1.875-3.451-4.212-4.48-7.015c-1.031-2.801-1.545-6.057-1.545-9.765
		c0-4.038,0.628-7.468,1.885-10.291c1.256-2.821,2.925-5.129,5.006-6.922c2.08-1.792,4.439-3.1,7.077-3.924
		c2.636-0.824,5.335-1.236,8.096-1.236c2.719,0,5.273,0.185,7.664,0.556c2.389,0.371,4.285,0.907,5.686,1.607
		c0,0.618-0.031,1.412-0.093,2.379c-0.062,0.968-0.154,2.008-0.278,3.121c-0.124,1.112-0.278,2.225-0.464,3.337
		c-0.185,1.113-0.401,2.123-0.649,3.029h-2.534l-3.461-9.394c-0.454-0.206-1.134-0.36-2.04-0.464
		c-0.907-0.102-1.813-0.154-2.719-0.154c-1.69,0-3.317,0.33-4.882,0.989c-1.566,0.66-2.946,1.721-4.141,3.183
		c-1.195,1.463-2.143,3.359-2.843,5.686c-0.701,2.328-1.051,5.161-1.051,8.498c0,2.719,0.319,5.202,0.958,7.447
		c0.638,2.246,1.535,4.171,2.688,5.778c1.153,1.607,2.534,2.864,4.141,3.77c1.607,0.907,3.378,1.36,5.315,1.36
		c0.618,0,1.256-0.051,1.916-0.155c0.659-0.102,1.277-0.236,1.854-0.401c0.577-0.165,1.082-0.35,1.514-0.557
		c0.433-0.206,0.731-0.391,0.896-0.556V51.786c-1.072-0.082-2.081-0.288-3.028-0.618c-0.948-0.329-1.834-0.72-2.658-1.174v-2.349
		h16.872v2.349c-0.371,0.371-0.865,0.711-1.483,1.02c-0.618,0.309-1.401,0.566-2.349,0.772V65.629z"/>
	<path fill="#023D59" d="M129.628,68.349h-15.265V66c0.659-0.411,1.369-0.772,2.132-1.082c0.762-0.309,1.514-0.545,2.256-0.71
		l15.945-39.863h4.574l15.512,39.863c0.824,0.165,1.647,0.401,2.472,0.71c0.824,0.309,1.545,0.67,2.163,1.082v2.349h-19.344V66
		c0.782-0.371,1.627-0.72,2.534-1.05c0.906-0.33,1.771-0.577,2.596-0.742l-3.584-9.827h-13.72l-3.646,9.827
		c1.895,0.247,3.687,0.845,5.376,1.792V68.349z M129.381,50.364h10.939l-4.017-11.805l-1.174-5.315h-0.124l-1.359,5.438
		L129.381,50.364z"/>
	<path fill="#023D59" d="M169.12,63.219c0.453,0.454,1.091,0.875,1.916,1.267c0.824,0.392,1.916,0.587,3.275,0.587
		c2.266,0,4.15-0.587,5.655-1.762c1.503-1.174,2.256-2.812,2.256-4.913c0-1.524-0.485-2.801-1.452-3.832
		c-0.969-1.029-2.194-1.978-3.677-2.843c-1.483-0.865-3.07-1.72-4.759-2.565c-1.69-0.844-3.276-1.843-4.759-2.997
		c-1.483-1.153-2.71-2.523-3.678-4.11c-0.968-1.586-1.452-3.554-1.452-5.902c0-2.018,0.371-3.77,1.112-5.253
		c0.742-1.483,1.762-2.708,3.06-3.677c1.298-0.967,2.832-1.689,4.604-2.163c1.771-0.473,3.687-0.71,5.748-0.71
		c2.513,0,4.852,0.176,7.015,0.525c2.163,0.35,4.11,0.896,5.84,1.638c-0.042,0.825-0.114,1.772-0.216,2.843
		c-0.103,1.072-0.237,2.132-0.401,3.183c-0.165,1.051-0.34,2.04-0.525,2.967c-0.186,0.927-0.361,1.7-0.525,2.317h-2.534
		l-2.855-8.467c-0.497-0.247-1.231-0.473-2.204-0.68c-0.972-0.206-1.976-0.309-3.01-0.309c-1.738,0-3.208,0.454-4.407,1.359
		c-1.2,0.907-1.8,2.225-1.8,3.956c0,1.566,0.496,2.895,1.487,3.986c0.992,1.092,2.232,2.092,3.72,2.998
		c1.488,0.907,3.11,1.803,4.867,2.688c1.755,0.886,3.378,1.906,4.866,3.059c1.488,1.154,2.728,2.503,3.72,4.048
		c0.992,1.545,1.488,3.452,1.488,5.717c0,4.121-1.391,7.304-4.172,9.549c-2.781,2.246-6.871,3.368-12.268,3.368
		c-1.319,0-2.648-0.083-3.986-0.247c-1.339-0.165-2.606-0.392-3.801-0.68c-1.196-0.288-2.256-0.597-3.183-0.927
		c-0.927-0.33-1.617-0.68-2.07-1.051c0.041-0.947,0.144-1.967,0.309-3.059c0.164-1.091,0.34-2.184,0.525-3.276
		c0.185-1.091,0.38-2.132,0.587-3.121c0.206-0.989,0.412-1.854,0.618-2.596h2.534L169.12,63.219z"/>
	<path fill="#023D59" d="M211.826,68.349V66c0.782-0.453,1.616-0.844,2.503-1.174c0.886-0.329,1.74-0.535,2.564-0.618v-34.98
		c-0.824-0.164-1.689-0.402-2.596-0.711s-1.73-0.669-2.472-1.082v-2.348h9.95c1.565,0,3.049-0.062,4.449-0.186
		s3.008-0.186,4.821-0.186c1.978,0,3.894,0.145,5.747,0.433c1.854,0.289,3.502,0.804,4.944,1.545
		c1.442,0.742,2.596,1.783,3.461,3.121c0.865,1.339,1.298,3.06,1.298,5.161c0,1.319-0.237,2.544-0.711,3.677
		c-0.474,1.134-1.133,2.132-1.978,2.998s-1.834,1.586-2.966,2.163c-1.134,0.578-2.359,0.989-3.678,1.236v0.248
		c1.318,0.165,2.646,0.474,3.986,0.927c1.338,0.454,2.544,1.112,3.615,1.978s1.947,1.947,2.627,3.245s1.02,2.833,1.02,4.604
		c0,2.225-0.494,4.141-1.483,5.748c-0.988,1.607-2.317,2.926-3.986,3.956c-1.668,1.03-3.574,1.783-5.717,2.256
		c-2.143,0.473-4.367,0.711-6.675,0.711c-0.865,0-1.813-0.021-2.843-0.062c-1.03-0.041-2.061-0.083-3.09-0.123
		c-1.03-0.042-2.03-0.083-2.997-0.124c-0.969-0.041-1.783-0.062-2.441-0.062H211.826z M227.771,44.369
		c0.699,0,1.399-0.031,2.101-0.093c0.7-0.062,1.36-0.133,1.978-0.216c1.607-0.659,2.905-1.678,3.894-3.059
		c0.989-1.38,1.483-2.956,1.483-4.728c0-2.596-0.68-4.501-2.039-5.717c-1.359-1.215-3.111-1.823-5.253-1.823
		c-0.907,0-1.69,0.021-2.349,0.062c-0.66,0.042-1.258,0.103-1.793,0.186v15.389H227.771z M230.49,64.702
		c2.596,0,4.636-0.772,6.118-2.317c1.483-1.545,2.226-3.594,2.226-6.149c0-1.565-0.247-2.853-0.742-3.863
		c-0.494-1.009-1.174-1.812-2.039-2.41c-0.865-0.597-1.896-1.009-3.09-1.236c-1.196-0.226-2.494-0.34-3.894-0.34h-3.276V64.27
		c0.577,0.124,1.185,0.227,1.823,0.309C228.254,64.662,229.212,64.702,230.49,64.702z"/>
	<path fill="#023D59" d="M266.272,64.221c0.947,0.205,1.792,0.471,2.534,0.798c0.741,0.327,1.462,0.655,2.163,0.981v2.349h-19.035
		V66c0.905-0.494,1.771-0.875,2.596-1.143c0.823-0.268,1.647-0.484,2.472-0.649v-34.98c-2.061-0.453-3.75-1.051-5.067-1.792v-2.348
		h6.551c0.824,0,1.762-0.021,2.812-0.062c1.05-0.041,2.152-0.093,3.306-0.154c1.153-0.062,2.327-0.124,3.523-0.186
		c1.194-0.062,2.349-0.093,3.461-0.093c2.266,0,4.356,0.259,6.272,0.776s3.563,1.294,4.944,2.329
		c1.38,1.035,2.451,2.329,3.214,3.882c0.762,1.553,1.144,3.364,1.144,5.434c0,2.982-0.722,5.425-2.163,7.33
		c-1.443,1.904-3.421,3.333-5.934,4.285c1.647,2.578,3.399,5.208,5.254,7.889c1.854,2.681,3.811,5.27,5.871,7.766l2.967,1.964v2.101
		h-10.321l-2.658-2.026c-1.896-2.251-3.574-4.86-5.036-7.828c-1.463-2.968-2.751-5.884-3.863-8.749h-5.006V64.221z M269.379,28.609
		c-1.284,0-2.32,0.124-3.107,0.371v17.243h3.667c2.112,0,3.915-0.751,5.405-2.256c1.491-1.503,2.237-3.739,2.237-6.706
		c0-1.524-0.207-2.832-0.621-3.924c-0.415-1.091-0.995-1.987-1.74-2.688c-0.746-0.7-1.616-1.215-2.61-1.545
		C271.615,28.774,270.539,28.609,269.379,28.609z"/>
	<path fill="#023D59" d="M295.38,20.204v-4.326h20.024v4.326H295.38z M314.911,68.349h-19.282V66
		c1.647-0.906,3.315-1.503,5.006-1.792v-34.98c-0.825-0.124-1.69-0.35-2.596-0.68c-0.907-0.33-1.711-0.7-2.41-1.113v-2.348h19.282
		v2.348c-0.742,0.454-1.556,0.834-2.441,1.144c-0.887,0.309-1.741,0.525-2.564,0.649v34.98c0.823,0.165,1.678,0.392,2.564,0.68
		c0.886,0.289,1.699,0.66,2.441,1.112V68.349z"/>
	<path fill="#023D59" d="M351.621,29.228c-0.988-0.206-1.926-0.473-2.812-0.804c-0.887-0.329-1.68-0.658-2.38-0.989v-2.348h15.698
		v2.348c-0.494,0.331-1.144,0.66-1.947,0.989c-0.803,0.331-1.638,0.598-2.503,0.804l-14.214,39.121l-6.119,0.741l-15.945-39.862
		c-0.824-0.206-1.648-0.463-2.472-0.772c-0.824-0.309-1.545-0.649-2.163-1.02v-2.348h20.58v2.348
		c-0.701,0.331-1.483,0.66-2.349,0.989c-0.865,0.331-1.771,0.598-2.719,0.804l8.652,24.35l1.421,5.81h0.124l1.359-5.933
		L351.621,29.228z"/>
	<path fill="#023D59" d="M361.819,46.718c0-3.214,0.453-6.19,1.359-8.931c0.906-2.74,2.246-5.108,4.018-7.107
		c1.771-1.998,3.955-3.554,6.551-4.666s5.583-1.668,8.962-1.668c3.378,0,6.365,0.556,8.961,1.668s4.769,2.668,6.521,4.666
		c1.751,1.999,3.079,4.368,3.986,7.107c0.905,2.741,1.359,5.717,1.359,8.931s-0.454,6.191-1.359,8.93
		c-0.907,2.741-2.235,5.109-3.986,7.107c-1.752,1.999-3.925,3.554-6.521,4.666c-2.596,1.113-5.583,1.668-8.961,1.668
		c-3.379,0-6.366-0.556-8.962-1.668c-2.596-1.112-4.779-2.667-6.551-4.666c-1.771-1.998-3.111-4.367-4.018-7.107
		C362.272,52.909,361.819,49.932,361.819,46.718z M372.326,46.718c0,2.637,0.205,5.078,0.618,7.324
		c0.411,2.246,1.06,4.182,1.946,5.809c0.886,1.628,2.019,2.905,3.399,3.832c1.38,0.927,3.038,1.391,4.975,1.391
		c1.771,0,3.276-0.464,4.512-1.391c1.236-0.927,2.245-2.204,3.028-3.832c0.782-1.627,1.35-3.563,1.7-5.809
		c0.35-2.246,0.525-4.687,0.525-7.324c0-2.636-0.196-5.078-0.588-7.324c-0.392-2.245-1.01-4.181-1.854-5.81
		c-0.845-1.627-1.958-2.905-3.338-3.832c-1.381-0.927-3.059-1.391-5.036-1.391c-1.896,0-3.482,0.463-4.759,1.391
		c-1.278,0.927-2.298,2.205-3.06,3.832c-0.763,1.628-1.298,3.564-1.607,5.81C372.48,41.64,372.326,44.082,372.326,46.718z"/>
	<path fill="#023D59" d="M415.71,63.219c0.453,0.454,1.091,0.875,1.916,1.267c0.823,0.392,1.916,0.587,3.275,0.587
		c2.266,0,4.15-0.587,5.655-1.762c1.503-1.174,2.256-2.812,2.256-4.913c0-1.524-0.485-2.801-1.453-3.832
		c-0.968-1.029-2.193-1.978-3.677-2.843s-3.07-1.72-4.759-2.565c-1.69-0.844-3.275-1.843-4.759-2.997
		c-1.483-1.153-2.71-2.523-3.678-4.11c-0.969-1.586-1.452-3.554-1.452-5.902c0-2.018,0.371-3.77,1.112-5.253
		c0.742-1.483,1.762-2.708,3.06-3.677c1.298-0.967,2.832-1.689,4.604-2.163c1.771-0.473,3.687-0.71,5.747-0.71
		c2.513,0,4.852,0.176,7.015,0.525c2.163,0.35,4.11,0.896,5.841,1.638c-0.042,0.825-0.114,1.772-0.217,2.843
		c-0.104,1.072-0.237,2.132-0.401,3.183c-0.165,1.051-0.34,2.04-0.525,2.967c-0.186,0.927-0.361,1.7-0.525,2.317h-2.534
		l-2.855-8.467c-0.496-0.247-1.231-0.473-2.203-0.68c-0.973-0.206-1.976-0.309-3.01-0.309c-1.738,0-3.208,0.454-4.408,1.359
		c-1.2,0.907-1.8,2.225-1.8,3.956c0,1.566,0.495,2.895,1.487,3.986c0.992,1.092,2.231,2.092,3.72,2.998
		c1.488,0.907,3.11,1.803,4.867,2.688c1.756,0.886,3.378,1.906,4.866,3.059c1.487,1.154,2.728,2.503,3.72,4.048
		c0.991,1.545,1.487,3.452,1.487,5.717c0,4.121-1.39,7.304-4.171,9.549c-2.781,2.246-6.871,3.368-12.269,3.368
		c-1.318,0-2.647-0.083-3.986-0.247c-1.339-0.165-2.605-0.392-3.801-0.68c-1.195-0.288-2.256-0.597-3.183-0.927
		c-0.927-0.33-1.617-0.68-2.07-1.051c0.041-0.947,0.144-1.967,0.309-3.059c0.165-1.091,0.341-2.184,0.525-3.276
		c0.186-1.091,0.381-2.132,0.588-3.121c0.205-0.989,0.411-1.854,0.617-2.596h2.534L415.71,63.219z"/>
	<path fill="#023D59" d="M471.704,68.349h-21.26V66c0.824-0.329,1.762-0.669,2.812-1.02c1.05-0.35,2.11-0.607,3.183-0.772V29.104
		h-7.169l-3.956,10.568h-2.533c-0.166-0.824-0.331-1.875-0.495-3.152c-0.165-1.276-0.309-2.596-0.433-3.955
		c-0.123-1.36-0.227-2.709-0.309-4.048c-0.083-1.338-0.124-2.481-0.124-3.43h39.307c0,0.989-0.041,2.143-0.123,3.461
		c-0.083,1.319-0.186,2.657-0.31,4.017c-0.123,1.359-0.269,2.668-0.433,3.924c-0.165,1.257-0.33,2.318-0.494,3.183h-2.534
		l-3.955-10.568h-7.169v35.104c1.07,0.207,2.132,0.454,3.183,0.742c1.051,0.289,1.987,0.639,2.812,1.05V68.349z"/>
	<path fill="#023D59" d="M491.357,68.349h-15.266V66c0.658-0.411,1.369-0.772,2.132-1.082s1.515-0.545,2.256-0.71l15.945-39.863
		h4.573l15.513,39.863c0.824,0.165,1.647,0.401,2.473,0.71c0.823,0.309,1.545,0.67,2.163,1.082v2.349h-19.345V66
		c0.782-0.371,1.627-0.72,2.534-1.05c0.905-0.33,1.771-0.577,2.596-0.742l-3.585-9.827h-13.72l-3.646,9.827
		c1.895,0.247,3.687,0.845,5.377,1.792V68.349z M491.11,50.364h10.938l-4.017-11.805l-1.175-5.315h-0.123l-1.36,5.438L491.11,50.364
		z"/>
</g>
<g>
	<g>
		<g>
			<g>
				<path fill="#023D59" d="M634.134,36.721c-1.291-0.37-2.638,0.378-3.007,1.669c-0.371,1.291,0.378,2.637,1.669,3.007
					c11.1,3.175,17.997,7.78,17.997,12.017c0,3.102-3.774,6.506-10.351,9.34c-7.234,3.117-17.5,5.399-28.913,6.426l-9.964-0.135
					c-0.012,0-0.022,0-0.034,0c-1.327,0-2.414,1.067-2.43,2.398c-0.02,1.344,1.057,2.448,2.397,2.465l10.088,0.137
					c0.012,0,0.022,0,0.034,0c0.072,0,0.144-0.002,0.215-0.009c11.966-1.066,22.808-3.487,30.532-6.815
					c10.982-4.733,13.288-10.121,13.288-13.808C655.657,46.619,648.013,40.69,634.134,36.721z"/>
				<path fill="#023D59" d="M583.39,59.78c-0.867-1.025-2.401-1.154-3.428-0.287c-1.025,0.869-1.154,2.402-0.287,3.428l5.438,6.429
					c-11.477-0.874-21.873-2.978-29.516-5.994c-7.51-2.963-11.816-6.587-11.816-9.942c0-3.895,5.774-8.093,15.442-11.23
					c1.277-0.414,1.977-1.785,1.562-3.063c-0.413-1.277-1.785-1.977-3.062-1.563c-5.626,1.824-10.086,3.994-13.259,6.451
					c-3.681,2.85-5.548,6.016-5.548,9.405c0,5.619,5.15,10.621,14.896,14.466c7.919,3.126,18.538,5.319,30.213,6.264l-4.853,5.376
					c-0.897,0.996-0.82,2.536,0.178,3.436c0.464,0.419,1.048,0.626,1.629,0.626c0.663,0,1.326-0.27,1.807-0.803l8.849-9.808
					c0.403-0.446,0.626-1.027,0.626-1.629v-0.187c0-0.574-0.204-1.131-0.574-1.569L583.39,59.78z"/>
			</g>
		</g>
	</g>
	<g>
		<path fill="#023D59" d="M573.704,30.437c1.688,0,2.854-0.202,3.496-0.605c0.643-0.403,0.963-1.34,0.963-2.808v-5.065
			c0-0.807-0.246-1.468-0.743-1.982c-0.494-0.513-1.166-0.771-2.009-0.771c-0.991,0-1.699,0.312-2.121,0.936
			c-0.423,0.625-0.633,1.23-0.633,1.817v3.194h-5.614v-3.249c0-1.137,0.219-2.221,0.66-3.249c0.439-1.027,1.045-1.909,1.815-2.642
			c0.772-0.735,1.671-1.323,2.699-1.763c1.026-0.44,2.128-0.66,3.304-0.66c1.542,0,2.816,0.303,3.826,0.908
			c1.009,0.605,1.771,1.221,2.285,1.845c0.365,0.44,0.688,0.89,0.965,1.349c0.272,0.459,0.495,0.991,0.66,1.597
			c0.165,0.605,0.292,1.34,0.385,2.202c0.092,0.863,0.137,1.918,0.137,3.166c0,1.359-0.026,2.459-0.082,3.303
			c-0.055,0.846-0.201,1.552-0.439,2.121c-0.241,0.569-0.588,1.055-1.048,1.459c-0.458,0.403-1.091,0.844-1.899,1.32
			c0.881,0.551,1.551,1.065,2.01,1.542c0.46,0.478,0.799,1.039,1.018,1.68c0.223,0.642,0.35,1.413,0.388,2.312
			c0.035,0.899,0.054,2.046,0.054,3.441c0,1.285-0.026,2.35-0.082,3.193c-0.055,0.846-0.137,1.552-0.248,2.122
			c-0.111,0.568-0.257,1.055-0.441,1.458c-0.184,0.404-0.422,0.827-0.715,1.267c-0.697,1.028-1.596,1.881-2.697,2.559
			c-1.101,0.681-2.516,1.02-4.239,1.02c-0.882,0-1.817-0.147-2.809-0.44c-0.99-0.294-1.892-0.771-2.698-1.432
			c-0.808-0.66-1.479-1.523-2.01-2.588c-0.532-1.064-0.797-2.367-0.797-3.909V41.89h5.614v2.918c0,0.881,0.248,1.606,0.744,2.175
			c0.495,0.57,1.164,0.854,2.01,0.854c0.843,0,1.515-0.284,2.009-0.854c0.497-0.569,0.743-1.33,0.743-2.285v-5.616
			c0-0.771-0.063-1.395-0.192-1.872c-0.128-0.478-0.357-0.854-0.688-1.129c-0.331-0.275-0.779-0.459-1.349-0.551
			c-0.57-0.09-1.313-0.138-2.23-0.138V30.437z"/>
		<path fill="#023D59" d="M595.836,30.382l0.11,0.111c0.184-0.146,0.47-0.267,0.854-0.359c0.384-0.091,0.89-0.137,1.515-0.137
			c0.991,0,1.906,0.238,2.751,0.715c0.845,0.478,1.506,1.083,1.983,1.817c0.255,0.404,0.458,0.808,0.604,1.211
			c0.146,0.405,0.269,0.936,0.358,1.597c0.091,0.66,0.155,1.496,0.193,2.505c0.036,1.01,0.055,2.284,0.055,3.827
			c0,1.286-0.019,2.34-0.055,3.166c-0.038,0.826-0.103,1.524-0.193,2.093c-0.09,0.569-0.22,1.055-0.385,1.458
			c-0.166,0.405-0.377,0.827-0.635,1.267c-0.734,1.211-1.716,2.148-2.945,2.808c-1.229,0.661-2.614,0.991-4.156,0.991
			c-1.541,0-2.918-0.338-4.13-1.02c-1.211-0.678-2.184-1.604-2.919-2.78c-0.293-0.44-0.521-0.862-0.687-1.267
			c-0.165-0.402-0.295-0.888-0.386-1.458c-0.094-0.569-0.156-1.267-0.193-2.093c-0.035-0.826-0.054-1.88-0.054-3.166
			c0-1.212,0.019-2.211,0.054-3.001c0.037-0.789,0.093-1.467,0.165-2.038c0.074-0.568,0.185-1.082,0.331-1.541
			c0.146-0.459,0.311-0.944,0.496-1.459l7.377-19.711h6.278L595.836,30.382z M598.646,37.76c0-0.844-0.275-1.523-0.827-2.037
			c-0.55-0.514-1.191-0.771-1.927-0.771c-0.734,0-1.376,0.256-1.926,0.771c-0.552,0.514-0.826,1.193-0.826,2.037v7.268
			c0,0.846,0.274,1.524,0.826,2.038c0.55,0.513,1.191,0.771,1.926,0.771c0.735,0,1.377-0.257,1.927-0.771
			c0.552-0.514,0.827-1.192,0.827-2.038V37.76z"/>
		<path fill="#023D59" d="M608.004,22.013c0-1.321,0.23-2.496,0.688-3.524c0.46-1.027,1.074-1.908,1.846-2.643
			c0.769-0.735,1.659-1.294,2.669-1.68c1.01-0.384,2.064-0.578,3.167-0.578c1.1,0,2.156,0.193,3.166,0.578
			c1.009,0.386,1.898,0.945,2.671,1.68c0.77,0.734,1.384,1.615,1.844,2.643c0.458,1.028,0.688,2.203,0.688,3.524v23.014
			c0,1.322-0.229,2.497-0.688,3.524c-0.46,1.028-1.074,1.909-1.844,2.642c-0.772,0.735-1.662,1.294-2.671,1.68
			c-1.01,0.386-2.066,0.578-3.166,0.578c-1.103,0-2.157-0.192-3.167-0.578s-1.9-0.945-2.669-1.68
			c-0.771-0.733-1.386-1.614-1.846-2.642c-0.458-1.027-0.688-2.203-0.688-3.524V22.013z M613.621,45.027
			c0,0.809,0.256,1.479,0.771,2.01s1.175,0.798,1.983,0.798c0.807,0,1.467-0.267,1.982-0.798c0.512-0.532,0.771-1.202,0.771-2.01
			V22.013c0-0.808-0.259-1.478-0.771-2.01c-0.516-0.531-1.176-0.798-1.982-0.798c-0.809,0-1.469,0.267-1.983,0.798
			c-0.515,0.533-0.771,1.202-0.771,2.01V45.027z"/>
	</g>
	<circle fill="#023D59" cx="627.379" cy="9.816" r="3.923"/>
</g>
</svg>
