<?xml version="1.0" encoding="utf-8"?>
<!-- Generator: Adobe Illustrator 16.0.0, SVG Export Plug-In . SVG Version: 6.00 Build 0)  -->
<!DOCTYPE svg PUBLIC "-//W3C//DTD SVG 1.1//EN" "http://www.w3.org/Graphics/SVG/1.1/DTD/svg11.dtd">
<svg version="1.1" id="Capa_1" xmlns="http://www.w3.org/2000/svg" xmlns:xlink="http://www.w3.org/1999/xlink" x="0px" y="0px"
	 width="595.279px" height="841.891px" viewBox="0 0 595.279 841.891" enable-background="new 0 0 595.279 841.891"
	 xml:space="preserve">
<g>
	<path fill="#023D59" d="M350.285,421.951l234.087-234.086c14.544-14.531,14.544-38.108,0-52.64
		c-14.544-14.543-38.096-14.543-52.64,0L297.647,369.312l-234.1-234.086c-14.543-14.543-38.096-14.543-52.64,0
		c-14.543,14.531-14.543,38.108,0,52.64l234.1,234.086l-234.1,234.087c-14.543,14.531-14.543,38.108,0,52.64
		c7.271,7.259,16.802,10.896,26.32,10.896c9.518,0,19.048-3.637,26.319-10.908l234.1-234.087l234.086,234.087
		c7.271,7.271,16.802,10.908,26.32,10.908c9.518,0,19.048-3.637,26.319-10.908c14.544-14.531,14.544-38.108,0-52.64L350.285,421.951
		z"/>
</g>
</svg>
