<?xml version="1.0" encoding="utf-8"?>
<!-- Generator: Adobe Illustrator 16.0.0, SVG Export Plug-In . SVG Version: 6.00 Build 0)  -->
<!DOCTYPE svg PUBLIC "-//W3C//DTD SVG 1.1//EN" "http://www.w3.org/Graphics/SVG/1.1/DTD/svg11.dtd">
<svg version="1.1" id="Capa_1" xmlns="http://www.w3.org/2000/svg" xmlns:xlink="http://www.w3.org/1999/xlink" x="0px" y="0px"
	 width="595.279px" height="841.891px" viewBox="0 0 595.279 841.891" enable-background="new 0 0 595.279 841.891"
	 xml:space="preserve">
<g>
	<path fill="#023D59" d="M297.64,123.305C133.522,123.305,0,256.828,0,420.947c0,164.118,133.521,297.638,297.64,297.638
		c164.119,0,297.64-133.52,297.64-297.638C595.28,256.828,461.759,123.305,297.64,123.305z M297.64,664.469
		c-134.28,0-243.523-109.243-243.523-243.521c0-134.279,109.243-243.526,243.523-243.526c134.281,0,243.523,109.247,243.523,243.526
		C541.163,555.226,431.919,664.469,297.64,664.469z"/>
	<path fill="#023D59" d="M297.637,249.577c-19.89,0-36.071,16.191-36.071,36.094c0,19.884,16.182,36.061,36.071,36.061
		c19.889,0,36.069-16.177,36.069-36.061C333.706,265.768,317.526,249.577,297.637,249.577z"/>
	<path fill="#023D59" d="M297.64,375.848c-14.943,0-27.058,12.115-27.058,27.058v162.35c0,14.943,12.114,27.058,27.058,27.058
		s27.059-12.114,27.059-27.058v-162.35C324.698,387.963,312.583,375.848,297.64,375.848z"/>
</g>
</svg>
